<svg width="32" height="33" viewBox="0 0 32 33" fill="none" xmlns="http://www.w3.org/2000/svg">
                    <path d="M13.1647 21.5651H18.816C19.0498 21.5651 19.2219 21.4851 19.3323 21.3251C19.4428 21.1651 19.498 20.9682 19.498 20.7344V18.5701H17.9853V20.0524H13.9957V13.0778H17.9853V14.5804H19.498V12.4161C19.498 12.1821 19.4428 11.9818 19.3323 11.8151C19.2219 11.6484 19.0498 11.5651 18.816 11.5651H13.1647C12.9309 11.5651 12.7588 11.6485 12.6483 11.8154C12.5379 11.9823 12.4827 12.1827 12.4827 12.4164V20.7344C12.4827 20.9682 12.5379 21.1651 12.6483 21.3251C12.7588 21.4851 12.9309 21.5651 13.1647 21.5651ZM16.003 29.2318C14.2648 29.2318 12.627 28.8993 11.0897 28.2344C9.55232 27.5696 8.20798 26.6617 7.05665 25.5108C5.90532 24.3599 4.99698 23.0161 4.33165 21.4794C3.66654 19.943 3.33398 18.3057 3.33398 16.5674C3.33398 14.8154 3.66643 13.1687 4.33132 11.6271C4.99621 10.0855 5.9041 8.74466 7.05498 7.60444C8.20587 6.46422 9.54965 5.56144 11.0863 4.8961C12.6228 4.23099 14.2601 3.89844 15.9983 3.89844C17.7503 3.89844 19.3971 4.23088 20.9387 4.89577C22.4802 5.56066 23.8211 6.46299 24.9613 7.60277C26.1015 8.74255 27.0043 10.0829 27.6697 11.6238C28.3348 13.1647 28.6673 14.811 28.6673 16.5628C28.6673 18.301 28.3349 19.9388 27.67 21.4761C27.0051 23.0134 26.1028 24.3578 24.963 25.5091C23.8232 26.6604 22.4829 27.5688 20.942 28.2341C19.4011 28.8992 17.7548 29.2318 16.003 29.2318ZM16.0007 27.7188C19.1049 27.7188 21.7399 26.6325 23.9057 24.4601C26.0714 22.2874 27.1543 19.6558 27.1543 16.5651C27.1543 13.4609 26.0714 10.8259 23.9057 8.6601C21.7399 6.49433 19.1049 5.41144 16.0007 5.41144C12.91 5.41144 10.2783 6.49433 8.10565 8.6601C5.93321 10.8259 4.84698 13.4609 4.84698 16.5651C4.84698 19.6558 5.93321 22.2874 8.10565 24.4601C10.2783 26.6325 12.91 27.7188 16.0007 27.7188Z" fill="#12271D"></path>
                </svg>