<svg width="20" height="20" viewBox="0 0 20 20" fill="none" xmlns="http://www.w3.org/2000/svg">
    <path d="M7.66053 7.24356V6.16023H14.3401V7.24356H7.66053ZM7.66053 9.64752V8.56419H14.3401V9.64752H7.66053ZM10.4362 17.5834H5.00033C4.55699 17.5834 4.18227 17.4303 3.87616 17.1242C3.57005 16.8181 3.41699 16.4434 3.41699 16V13.0963H5.41699V2.41669H16.5837V8.80294L15.5003 9.86544V3.50002H6.50033V13.0963H12.2487L11.1653 14.1794H4.50033V16C4.50033 16.1417 4.54824 16.2604 4.64408 16.3563C4.73991 16.4521 4.85866 16.5 5.00033 16.5H10.4362V17.5834ZM12.0966 17.5834V15.5898L16.9235 10.7838L18.888 12.7852L14.0993 17.5834H12.0966ZM12.8401 16.8398H13.7776L16.3576 14.2675L15.8914 13.7884L15.441 13.3142L12.8401 15.9023V16.8398ZM15.8914 13.7884L15.441 13.3142L16.3576 14.2675L15.8914 13.7884Z" fill="#707767"></path>
</svg>