<svg width="24" height="24" viewBox="0 0 24 24" fill="none" xmlns="http://www.w3.org/2000/svg">
    <path fill-rule="evenodd" clip-rule="evenodd" d="M6.94511 12C6.94511 9.20824 9.20824 6.9451 12 6.9451C14.7918 6.9451 17.0549 9.20824 17.0549 12C17.0549 14.7918 14.7918 17.0549 12 17.0549C9.20824 17.0549 6.94511 14.7918 6.94511 12ZM12 15.2812C10.1878 15.2812 8.71875 13.8122 8.71875 12C8.71875 10.1878 10.1878 8.71875 12 8.71875C13.8122 8.71875 15.2812 10.1878 15.2812 12C15.2812 13.8122 13.8122 15.2812 12 15.2812Z" fill="#1D1D1B"></path>
    <path d="M17.2546 7.92663C17.907 7.92663 18.4359 7.39779 18.4359 6.74539C18.4359 6.093 17.907 5.56412 17.2546 5.56412C16.6023 5.56412 16.0734 6.093 16.0734 6.74539C16.0734 7.39779 16.6023 7.92663 17.2546 7.92663Z" fill="#1D1D1B"></path>
    <path fill-rule="evenodd" clip-rule="evenodd" d="M12 2.15625C9.3266 2.15625 8.99137 2.16758 7.94143 2.21549C6.89368 2.26328 6.1781 2.4297 5.55197 2.67305C4.90466 2.92458 4.35569 3.26117 3.80841 3.80841C3.26117 4.35569 2.92458 4.90466 2.67305 5.55197C2.4297 6.1781 2.26328 6.89368 2.21549 7.94143C2.16758 8.99137 2.15625 9.3266 2.15625 12C2.15625 14.6734 2.16758 15.0086 2.21549 16.0586C2.26328 17.1063 2.4297 17.8219 2.67305 18.448C2.92458 19.0953 3.26117 19.6443 3.80841 20.1916C4.35569 20.7388 4.90466 21.0754 5.55197 21.327C6.1781 21.5703 6.89368 21.7367 7.94143 21.7845C8.99137 21.8324 9.3266 21.8438 12 21.8438C14.6734 21.8438 15.0086 21.8324 16.0586 21.7845C17.1063 21.7367 17.8219 21.5703 18.448 21.327C19.0953 21.0754 19.6443 20.7388 20.1916 20.1916C20.7388 19.6443 21.0754 19.0953 21.327 18.448C21.5703 17.8219 21.7367 17.1063 21.7845 16.0586C21.8324 15.0086 21.8438 14.6734 21.8438 12C21.8438 9.3266 21.8324 8.99137 21.7845 7.94143C21.7367 6.89368 21.5703 6.1781 21.327 5.55197C21.0754 4.90466 20.7388 4.35569 20.1916 3.80841C19.6443 3.26117 19.0953 2.92458 18.448 2.67305C17.8219 2.4297 17.1063 2.26328 16.0586 2.21549C15.0086 2.16758 14.6734 2.15625 12 2.15625ZM12 3.9299C14.6284 3.9299 14.9397 3.93994 15.9777 3.9873C16.9375 4.03106 17.4587 4.19142 17.8056 4.32623C18.265 4.5048 18.593 4.71811 18.9374 5.0626C19.2819 5.40704 19.4952 5.73496 19.6738 6.19444C19.8086 6.54131 19.9689 7.06252 20.0127 8.02228C20.0601 9.06026 20.0701 9.37161 20.0701 12C20.0701 14.6284 20.0601 14.9397 20.0127 15.9777C19.9689 16.9375 19.8086 17.4587 19.6738 17.8056C19.4952 18.265 19.2819 18.593 18.9374 18.9374C18.593 19.2819 18.265 19.4952 17.8056 19.6738C17.4587 19.8086 16.9375 19.9689 15.9777 20.0127C14.9399 20.0601 14.6286 20.0701 12 20.0701C9.37142 20.0701 9.06015 20.0601 8.02228 20.0127C7.06253 19.9689 6.54131 19.8086 6.19444 19.6738C5.73496 19.4952 5.40704 19.2819 5.0626 18.9374C4.71815 18.593 4.50481 18.265 4.32623 17.8056C4.19143 17.4587 4.03106 16.9375 3.9873 15.9777C3.93994 14.9397 3.9299 14.6284 3.9299 12C3.9299 9.37161 3.93994 9.06026 3.9873 8.02228C4.03106 7.06252 4.19143 6.54131 4.32623 6.19444C4.50481 5.73496 4.71812 5.40704 5.0626 5.0626C5.40704 4.71811 5.73496 4.5048 6.19444 4.32623C6.54131 4.19142 7.06253 4.03106 8.02228 3.9873C9.06027 3.93994 9.37161 3.9299 12 3.9299Z" fill="#1D1D1B"></path>
</svg>