<svg width="24" height="24" viewBox="0 0 24 24" fill="none" xmlns="http://www.w3.org/2000/svg">
    <path d="M18.9309 18.9312H16.0139V14.3629C16.0139 13.2735 15.9944 11.8712 14.4967 11.8712C12.9774 11.8712 12.7449 13.0581 12.7449 14.2836V18.9309H9.82785V9.53655H12.6282V10.8204H12.6674C13.2384 9.84405 14.3002 9.26092 15.4304 9.30288C18.387 9.30288 18.9321 11.2476 18.9321 13.7776L18.9309 18.9312ZM6.53642 8.2524C5.6015 8.25257 4.84347 7.49479 4.8433 6.55986C4.84313 5.62492 5.60089 4.86687 6.53581 4.8667C7.47072 4.86654 8.22876 5.62431 8.22892 6.55925C8.22901 7.00822 8.05073 7.43884 7.73333 7.75637C7.41592 8.07389 6.98538 8.25232 6.53642 8.2524ZM7.99495 18.9312H5.07484V9.53655H7.99495V18.9312ZM20.3852 2.15772H3.60901C2.81613 2.14877 2.16593 2.7839 2.15625 3.57678V20.4229C2.1656 21.2162 2.81575 21.852 3.60901 21.8436H20.3852C21.18 21.8535 21.8327 21.2178 21.8438 20.4229V3.57557C21.8324 2.78111 21.1797 2.14602 20.3852 2.15637" fill="#1D1D1B"></path>
</svg>