<svg width="1000" height="1000" viewBox="0 0 1000 1000" fill="none" xmlns="http://www.w3.org/2000/svg">
    <path d="M728.394 77.0805C750.539 54.9428 786.076 54.5877 807.769 76.2805L923.144 191.656C944.838 213.351 944.469 248.887 922.325 271.031L544.449 647.887C531.836 660.467 540.744 682.015 558.558 682.015H881.271C913.249 682.015 939.183 706.918 939.183 737.625V883.556C939.183 914.263 913.249 939.166 881.271 939.166H238.952C231.203 939.166 223.972 937.929 217.352 935.751C209.342 933.39 201.715 929.101 195.01 922.951C194.568 922.559 194.133 922.163 193.703 921.761C193.483 921.547 193.238 921.354 193.02 921.136L77.6447 805.761C55.9497 784.066 53.6466 750.072 75.7911 727.927L264.904 539.304C272.762 531.466 272.727 518.727 264.826 510.933L76.9228 325.568C66.3406 315.128 60.3765 300.881 60.3765 286.016V116.027C60.3787 85.3481 85.2487 60.4771 115.928 60.4757H261.761C292.44 60.4772 317.31 85.3482 317.312 116.027V438.905C317.312 456.693 338.807 465.613 351.402 453.053L728.394 77.0805Z" fill="#12271D"></path>
    <path d="M987.817 920.451C987.817 911.406 980.484 904.073 971.439 904.073C962.394 904.073 955.061 911.406 955.061 920.451C955.061 929.496 962.394 936.829 971.439 936.829V939.166C961.103 939.166 952.725 930.787 952.725 920.451C952.725 910.115 961.103 901.736 971.439 901.736C981.775 901.736 990.154 910.115 990.154 920.451C990.154 930.787 981.775 939.166 971.439 939.166V936.829C980.484 936.829 987.817 929.496 987.817 920.451Z" fill="#12271D"></path>
    <path d="M963.315 927.202C963.259 927.202 963.221 927.165 963.221 927.108V915.532C963.221 915.475 963.183 915.438 963.127 915.438H959.858C959.802 915.438 959.764 915.4 959.764 915.343V913.789C959.764 913.733 959.802 913.695 959.858 913.695H968.543C968.599 913.695 968.637 913.733 968.637 913.789V915.343C968.637 915.4 968.599 915.438 968.543 915.438H965.284C965.227 915.438 965.19 915.475 965.19 915.532V927.108C965.19 927.165 965.152 927.202 965.095 927.202H963.315Z" fill="#12271D"></path>
    <path d="M969.787 927.202C969.73 927.202 969.693 927.165 969.693 927.108V913.789C969.693 913.733 969.73 913.695 969.787 913.695H972.631C972.679 913.695 972.726 913.714 972.745 913.77L976.333 923.585C976.362 923.661 976.437 923.661 976.465 923.585L980.063 913.77C980.082 913.714 980.129 913.695 980.176 913.695H983.021C983.077 913.695 983.115 913.733 983.115 913.789V927.108C983.115 927.165 983.077 927.202 983.021 927.202H981.241C981.184 927.202 981.146 927.165 981.146 927.108V916.182C981.146 916.097 981.071 916.078 981.043 916.163L977.002 927.127C976.983 927.183 976.936 927.202 976.889 927.202H975.919C975.872 927.202 975.825 927.183 975.806 927.127L971.765 916.163C971.737 916.078 971.661 916.097 971.661 916.182V927.108C971.661 927.165 971.624 927.202 971.567 927.202H969.787Z" fill="#12271D"></path>
</svg>